<svg width="27" height="27" viewBox="0 0 27 27" fill="none" xmlns="http://www.w3.org/2000/svg">
<path d="M13.5 24.5C12.8792 24.508 12.2806 24.2696 11.8354 23.8369C11.3902 23.4043 11.1347 22.8127 11.125 22.192H15.875C15.8653 22.8127 15.6098 23.4043 15.1646 23.8369C14.7194 24.2696 14.1208 24.508 13.5 24.5ZM23 21.038H4V19.884L6.375 17.577V11.807C6.341 10.1387 6.8283 8.50126 7.769 7.123C8.71557 5.79275 10.1238 4.86293 11.719 4.515V3.731C11.73 3.26582 11.9226 2.82341 12.2554 2.49831C12.5883 2.17321 13.0352 1.99121 13.5005 1.99121C13.9658 1.99121 14.4127 2.17321 14.7456 2.49831C15.0784 2.82341 15.271 3.26582 15.282 3.731V4.515C16.8756 4.86589 18.2817 5.7969 19.227 7.127C20.1697 8.50312 20.6591 10.1393 20.627 11.807V17.577L23 19.884V21.037V21.038Z" fill="#00256A"/>
</svg>
