<svg width="24" height="24" viewBox="0 0 24 24" fill="none" xmlns="http://www.w3.org/2000/svg">
<path d="M12 15C13.6569 15 15 13.6569 15 12C15 10.3431 13.6569 9 12 9C10.3431 9 9 10.3431 9 12C9 13.6569 10.3431 15 12 15Z" stroke="#333333" stroke-width="1.5" stroke-linecap="round" stroke-linejoin="round"/>
<path d="M18.055 14.455C17.9461 14.7018 17.9136 14.9755 17.9618 15.2409C18.0099 15.5063 18.1364 15.7512 18.325 15.944L18.374 15.993C18.5279 16.1446 18.6503 16.3251 18.7341 16.5242C18.8179 16.7233 18.8615 16.9371 18.8623 17.1531C18.8632 17.3691 18.8212 17.5832 18.7389 17.7829C18.6567 17.9826 18.5356 18.1641 18.3829 18.3169C18.2301 18.4696 18.0487 18.5906 17.8489 18.6729C17.6492 18.7552 17.4351 18.7972 17.2191 18.7963C17.0031 18.7955 16.7894 18.7519 16.5902 18.6681C16.3911 18.5843 16.2106 18.4619 16.059 18.308L16.01 18.259C15.8187 18.074 15.5774 17.9492 15.3159 17.8999C15.0544 17.8507 14.7842 17.8791 14.5387 17.9818C14.2933 18.0845 14.0833 18.2569 13.9347 18.4777C13.7862 18.6984 13.7056 18.9579 13.703 19.224V19.363C13.703 19.797 13.5306 20.2133 13.2237 20.5202C12.9168 20.8271 12.5005 20.9995 12.0665 20.9995C11.6325 20.9995 11.2162 20.8271 10.9093 20.5202C10.6024 20.2133 10.43 19.797 10.43 19.363V19.29C10.4236 19.0192 10.3358 18.7566 10.1782 18.5364C10.0205 18.3162 9.80025 18.1484 9.54601 18.055C9.29925 17.9461 9.02552 17.9136 8.76012 17.9618C8.49473 18.0099 8.24983 18.1364 8.05701 18.325L8.00801 18.374C7.85643 18.5279 7.67588 18.6503 7.47678 18.7341C7.27767 18.8179 7.06395 18.8615 6.84792 18.8623C6.6319 18.8632 6.41784 18.8212 6.2181 18.7389C6.01836 18.6566 5.83689 18.5356 5.68413 18.3829C5.53138 18.2301 5.41037 18.0486 5.32808 17.8489C5.24579 17.6492 5.20385 17.4351 5.20468 17.2191C5.2055 17.0031 5.24908 16.7893 5.33289 16.5902C5.4167 16.3911 5.5391 16.2106 5.69301 16.059L5.74201 16.01C5.92809 15.8187 6.05383 15.577 6.1036 15.3148C6.15337 15.0526 6.12496 14.7816 6.02191 14.5354C5.91887 14.2893 5.74573 14.0788 5.52403 13.9303C5.30234 13.7818 5.04186 13.7017 4.77501 13.7H4.63601C4.20198 13.7 3.78573 13.5276 3.47883 13.2207C3.17193 12.9138 2.99951 12.4975 2.99951 12.0635C2.99951 11.6295 3.17193 11.2132 3.47883 10.9063C3.78573 10.5994 4.20198 10.427 4.63601 10.427H4.71001C4.98079 10.4205 5.24337 10.3328 5.46361 10.1751C5.68386 10.0175 5.85159 9.79724 5.94501 9.543C6.0539 9.29624 6.08638 9.02251 6.03826 8.75711C5.99013 8.49172 5.86361 8.24682 5.67501 8.054L5.62601 8.005C5.46857 7.85418 5.34284 7.67343 5.2562 7.47336C5.16957 7.27329 5.12377 7.05793 5.1215 6.83992C5.11923 6.62191 5.16053 6.40564 5.24298 6.20381C5.32542 6.00198 5.44736 5.81865 5.60163 5.66458C5.75589 5.51051 5.93938 5.38882 6.14132 5.30663C6.34326 5.22444 6.55958 5.18342 6.77759 5.18598C6.99559 5.18853 7.2109 5.23461 7.41085 5.3215C7.61081 5.4084 7.7914 5.53436 7.94201 5.692L7.99101 5.741C8.18383 5.9296 8.42873 6.05612 8.69412 6.10425C8.95952 6.15237 9.23325 6.11989 9.48001 6.011H9.54501C9.7869 5.90729 9.9932 5.73513 10.1385 5.51572C10.2839 5.2963 10.3619 5.03918 10.363 4.776V4.636C10.363 4.20197 10.5354 3.78572 10.8423 3.47882C11.1492 3.17192 11.5655 2.9995 11.9995 2.9995C12.4335 2.9995 12.8498 3.17192 13.1567 3.47882C13.4636 3.78572 13.636 4.20197 13.636 4.636V4.71C13.6386 4.97608 13.7192 5.23555 13.8677 5.45633C14.0163 5.6771 14.2263 5.84949 14.4717 5.95218C14.7172 6.05486 14.9874 6.08333 15.2489 6.03407C15.5104 5.9848 15.7517 5.85997 15.943 5.675L15.992 5.626C16.1436 5.47208 16.3241 5.34969 16.5232 5.26588C16.7224 5.18207 16.9361 5.13849 17.1521 5.13767C17.3681 5.13684 17.5822 5.17878 17.7819 5.26107C17.9817 5.34336 18.1631 5.46437 18.3159 5.61712C18.4686 5.76987 18.5897 5.95135 18.6719 6.15109C18.7542 6.35083 18.7962 6.56488 18.7953 6.78091C18.7945 6.99693 18.7509 7.21066 18.6671 7.40977C18.5833 7.60887 18.4609 7.78942 18.307 7.941L18.258 7.99C18.0694 8.18282 17.9429 8.42772 17.8948 8.69311C17.8466 8.95851 17.8791 9.23224 17.988 9.479V9.544C18.0917 9.78589 18.2639 9.99219 18.4833 10.1375C18.7027 10.2829 18.9598 10.3609 19.223 10.362H19.362C19.796 10.362 20.2123 10.5344 20.5192 10.8413C20.8261 11.1482 20.9985 11.5645 20.9985 11.9985C20.9985 12.4325 20.8261 12.8488 20.5192 13.1557C20.2123 13.4626 19.796 13.635 19.362 13.635H19.29C19.0266 13.6363 18.7693 13.7146 18.5499 13.8603C18.3304 14.006 18.1584 14.2127 18.055 14.455V14.455Z" stroke="#333333" stroke-width="1.5" stroke-linecap="round" stroke-linejoin="round"/>
</svg>
