<svg width="232" height="39" viewBox="0 0 232 39" fill="none" xmlns="http://www.w3.org/2000/svg">
<path d="M161.621 34.027H102V38.027H161.621V34.027Z" fill="#69BD42"/>
<path d="M231.611 34.027H161.621V38.027H231.611V34.027Z" fill="#2D92E9"/>
<path d="M103.905 5.80099L105.997 10.747H106.18L108.272 5.80099H110.18V13.101H109.018V7.26099H108.831L106.684 12.244H105.48L103.351 7.26099H103.165V13.099H102V5.79898L103.905 5.80099Z" fill="#2D92E9"/>
<path d="M111.389 10.552C111.384 10.3625 111.412 10.1735 111.473 9.99398C111.527 9.8473 111.624 9.72061 111.752 9.63097C111.909 9.52703 112.087 9.45878 112.273 9.43099C112.54 9.38612 112.81 9.3657 113.081 9.36999H114.922V8.35699H111.622V7.51998H114.764C115.022 7.51149 115.28 7.54768 115.526 7.62697C115.693 7.68279 115.844 7.77698 115.968 7.90197C116.064 8.00539 116.133 8.1312 116.168 8.26797C116.202 8.39862 116.219 8.53304 116.219 8.66799V13.103H112.64C112.32 13.1197 112.001 13.0473 111.72 12.894C111.606 12.8162 111.514 12.7093 111.455 12.5842C111.396 12.4592 111.372 12.3206 111.385 12.183L111.389 10.552ZM112.689 10.208V12.262H114.92V10.208H112.689Z" fill="#69BD42"/>
<path d="M120.862 7.56699C121.066 7.5657 121.27 7.57805 121.472 7.60397C121.629 7.62212 121.78 7.67658 121.913 7.763C122.036 7.85045 122.128 7.97377 122.178 8.116C122.243 8.31352 122.273 8.52104 122.266 8.72897V13.099H120.966V8.42297H118.735V13.099H117.435V7.56699H120.862Z" fill="#69BD42"/>
<path d="M123.289 10.552C123.284 10.3626 123.312 10.1737 123.372 9.99398C123.426 9.84749 123.523 9.72089 123.651 9.63098C123.808 9.52721 123.986 9.45897 124.172 9.43099C124.439 9.38618 124.71 9.36575 124.981 9.36999H126.822V8.35699H123.522V7.51998H126.664C126.923 7.5116 127.181 7.54779 127.427 7.62698C127.594 7.68252 127.745 7.77676 127.868 7.90197C127.966 8.00467 128.037 8.1306 128.073 8.26797C128.107 8.39862 128.124 8.53304 128.124 8.66799V13.103H124.545C124.225 13.12 123.907 13.0476 123.625 12.894C123.511 12.8165 123.419 12.7095 123.36 12.5844C123.301 12.4593 123.277 12.3207 123.29 12.183L123.289 10.552ZM124.589 10.208V12.262H126.821V10.208H124.589Z" fill="#69BD42"/>
<path d="M129.322 11.138C129.309 10.8767 129.299 10.641 129.294 10.431C129.288 10.221 129.284 10.011 129.284 9.80297C129.284 9.59497 129.284 9.38098 129.294 9.15698C129.304 8.93298 129.309 8.67998 129.322 8.39498C129.326 8.27672 129.358 8.16106 129.414 8.057C129.471 7.95294 129.55 7.86329 129.647 7.79498C129.924 7.62001 130.25 7.53836 130.577 7.56198H134.08V14.191C134.086 14.3457 134.047 14.4989 133.968 14.632C133.897 14.7436 133.802 14.8373 133.689 14.906C133.573 14.976 133.446 15.0251 133.313 15.051C133.18 15.078 133.044 15.0917 132.908 15.092H129.943V14.21H132.78V12.41H131.014C130.908 12.41 130.764 12.41 130.582 12.405C130.395 12.4013 130.211 12.3637 130.038 12.294C129.848 12.2153 129.682 12.0868 129.559 11.922C129.402 11.6908 129.319 11.4173 129.322 11.138ZM130.622 8.40399V11.574H132.78V8.40399H130.622Z" fill="#69BD42"/>
<path d="M135.197 8.39498C135.201 8.27661 135.233 8.16085 135.29 8.05676C135.346 7.95267 135.426 7.86307 135.523 7.79498C135.8 7.61982 136.125 7.53815 136.452 7.56198H138.628C138.779 7.56355 138.93 7.5746 139.079 7.595C139.241 7.61615 139.397 7.66844 139.539 7.74899C139.687 7.83539 139.809 7.96053 139.892 8.11099C139.995 8.31527 140.043 8.54267 140.031 8.77099V10.742H136.499V12.257H139.929V13.094H136.889C136.789 13.094 136.64 13.094 136.457 13.089C136.269 13.085 136.084 13.0474 135.909 12.978C135.718 12.9008 135.552 12.772 135.43 12.606C135.276 12.3731 135.195 12.0994 135.197 11.82V8.39498ZM136.497 8.40399V9.90997H138.719V8.40399H136.497Z" fill="#69BD42"/>
<path d="M147.506 7.56698C147.71 7.56573 147.913 7.57807 148.115 7.60397C148.272 7.62194 148.423 7.67641 148.556 7.763C148.679 7.85045 148.771 7.97377 148.821 8.11599C148.887 8.31345 148.917 8.52098 148.91 8.72897V13.099H147.61V8.39898H145.677V13.099H144.377V8.42297H142.453V13.099H141.153V7.56698H147.506Z" fill="#69BD42"/>
<path d="M150.035 8.39498C150.039 8.27668 150.071 8.16094 150.127 8.05685C150.184 7.95276 150.263 7.86312 150.36 7.79498C150.637 7.61982 150.962 7.53815 151.289 7.56198H153.465C153.616 7.56351 153.767 7.57456 153.916 7.595C154.078 7.61615 154.234 7.66844 154.376 7.74899C154.524 7.83539 154.646 7.96053 154.729 8.11099C154.832 8.31516 154.88 8.54258 154.869 8.77099V10.742H151.336V12.257H154.766V13.094H151.726C151.621 13.094 151.477 13.094 151.294 13.089C151.106 13.085 150.921 13.0474 150.746 12.978C150.555 12.9005 150.389 12.7718 150.267 12.606C150.112 12.3733 150.032 12.0993 150.035 11.82V8.39498ZM151.335 8.40399V9.90997H153.557V8.40399H151.335Z" fill="#69BD42"/>
<path d="M159.415 7.56698C159.619 7.56573 159.822 7.57807 160.024 7.60397C160.181 7.62194 160.332 7.67641 160.465 7.763C160.588 7.85045 160.68 7.97377 160.73 8.11599C160.796 8.31345 160.826 8.52098 160.819 8.72897V13.099H159.519V8.42297H157.288V13.099H155.988V7.56698H159.415Z" fill="#69BD42"/>
<path d="M162.38 7.56699V5.80099H163.68V7.56699H165.08V8.49698H163.68V12.17H165.372V13.099H163.55C163.414 13.0984 163.278 13.0843 163.145 13.057C163.012 13.0314 162.884 12.9823 162.768 12.912C162.656 12.8434 162.561 12.75 162.49 12.639C162.411 12.5056 162.372 12.3521 162.378 12.197V8.49698H161.56V7.56699H162.38Z" fill="#69BD42"/>
<path d="M171.463 6.73999V13.006H170.254V6.73999H168.534V5.90399H173.18V6.73999H171.463Z" fill="#2D92E9"/>
<path d="M176.195 7.56699C176.346 7.56856 176.496 7.57957 176.646 7.59998C176.808 7.62113 176.964 7.67345 177.106 7.754C177.254 7.8404 177.376 7.96554 177.459 8.116C177.562 8.32017 177.61 8.54759 177.599 8.776V9.08298H176.48V8.44998H175.18V13.099H173.88V7.56699H176.195Z" fill="#69BD42"/>
<path d="M179.7 13.099C179.495 13.1006 179.29 13.0882 179.086 13.062C178.93 13.0437 178.78 12.9893 178.649 12.903C178.526 12.8161 178.433 12.6931 178.384 12.551C178.319 12.3531 178.289 12.1452 178.296 11.937V7.56699H179.596V12.244H181.827V7.56699H183.127V13.099H179.7Z" fill="#69BD42"/>
<path d="M184.217 13.099V12.262H187.499V10.588H185.231C184.952 10.6027 184.677 10.5137 184.459 10.338C184.359 10.246 184.281 10.1334 184.229 10.008C184.177 9.88266 184.153 9.74753 184.159 9.612C184.159 9.495 184.159 9.39598 184.154 9.31198C184.149 9.22798 184.149 9.15698 184.149 9.09198C184.149 9.02698 184.149 8.961 184.154 8.892C184.159 8.823 184.159 8.73998 184.159 8.63998C184.156 8.4403 184.206 8.24335 184.303 8.069C184.389 7.92728 184.508 7.80905 184.651 7.72498C184.799 7.64013 184.961 7.58351 185.13 7.55798C185.307 7.52996 185.486 7.51593 185.665 7.51599H188.465V8.353H185.465V9.74698H187.854C188.098 9.73376 188.339 9.80826 188.533 9.957C188.626 10.0498 188.697 10.1611 188.744 10.2836C188.79 10.4062 188.811 10.5372 188.803 10.668V11.913C188.806 12.0911 188.765 12.2671 188.682 12.425C188.602 12.5724 188.489 12.6996 188.352 12.797C188.205 12.8988 188.041 12.974 187.868 13.019C187.682 13.0695 187.49 13.0947 187.297 13.094L184.217 13.099Z" fill="#69BD42"/>
<path d="M190.18 7.56699V5.80099H191.48V7.56699H192.874V8.49698H191.48V12.17H193.172V13.099H191.35C191.216 13.0982 191.082 13.0841 190.95 13.057C190.817 13.0318 190.689 12.9827 190.573 12.912C190.46 12.8434 190.365 12.75 190.294 12.639C190.215 12.5056 190.176 12.3521 190.182 12.197V8.49698H189.365V7.56699H190.18Z" fill="#69BD42"/>
<path d="M196.721 13.099V12.262H200.003V9.733H197.734C197.454 9.74784 197.179 9.6568 196.963 9.478C196.862 9.38183 196.784 9.26522 196.732 9.13602C196.68 9.00682 196.657 8.86801 196.663 8.72897C196.663 8.61197 196.663 8.469 196.658 8.302C196.653 8.135 196.658 7.96598 196.658 7.79498C196.658 7.62398 196.658 7.46198 196.658 7.30698C196.658 7.15198 196.663 7.025 196.663 6.926C196.66 6.72627 196.709 6.52922 196.807 6.35498C196.893 6.21278 197.013 6.09421 197.156 6.00998C197.303 5.92412 197.466 5.86743 197.635 5.84299C197.812 5.81497 197.99 5.80093 198.169 5.801H200.869V6.638H197.869V8.85098H200.258C200.502 8.83745 200.742 8.9116 200.936 9.06C201.03 9.15556 201.102 9.26992 201.149 9.39557C201.196 9.52122 201.215 9.65531 201.206 9.789V11.918C201.209 12.096 201.168 12.2721 201.086 12.43C201.006 12.5777 200.892 12.7049 200.755 12.802C200.608 12.904 200.445 12.9792 200.272 13.024C200.085 13.0744 199.893 13.0997 199.7 13.099H196.721Z" fill="#2D92E9"/>
<path d="M206.928 14.196C206.934 14.3506 206.896 14.5038 206.817 14.637C206.746 14.7486 206.651 14.8423 206.538 14.911C206.422 14.981 206.295 15.0302 206.162 15.056C206.03 15.0827 205.896 15.0964 205.762 15.097H202.611V14.215H205.632V12.815H203.596C203.391 12.8173 203.186 12.8046 202.983 12.777C202.827 12.7591 202.677 12.7054 202.545 12.62C202.423 12.5323 202.33 12.4091 202.281 12.267C202.216 12.0691 202.186 11.8612 202.193 11.653V7.58099H203.493V11.969H205.631V7.569H206.931L206.928 14.196Z" fill="#69BD42"/>
<path d="M208.016 13.099V12.262H211.298V10.588H209.03C208.751 10.6025 208.476 10.5135 208.258 10.338C208.158 10.246 208.08 10.1334 208.028 10.008C207.976 9.88266 207.952 9.74753 207.958 9.612C207.958 9.495 207.958 9.39598 207.953 9.31198C207.948 9.22798 207.948 9.15698 207.948 9.09198C207.948 9.02698 207.948 8.961 207.953 8.892C207.958 8.823 207.958 8.73998 207.958 8.63998C207.955 8.4403 208.005 8.24335 208.102 8.069C208.188 7.92728 208.307 7.80905 208.45 7.72498C208.598 7.64013 208.76 7.58351 208.929 7.55798C209.106 7.52996 209.285 7.51593 209.464 7.51599H212.264V8.353H209.264V9.74698H211.653C211.897 9.73358 212.138 9.8081 212.332 9.957C212.425 10.0496 212.497 10.1609 212.543 10.2835C212.59 10.406 212.61 10.5371 212.602 10.668V11.913C212.605 12.0911 212.564 12.2671 212.481 12.425C212.401 12.5723 212.288 12.6995 212.151 12.797C212.004 12.8988 211.84 12.974 211.667 13.019C211.481 13.0695 211.289 13.0947 211.096 13.094L208.016 13.099Z" fill="#69BD42"/>
<path d="M213.975 7.56699V5.80099H215.275V7.56699H216.669V8.49698H215.28V12.17H216.972V13.099H215.15C215.016 13.0982 214.882 13.0841 214.75 13.057C214.617 13.0314 214.489 12.9823 214.373 12.912C214.261 12.8434 214.166 12.75 214.095 12.639C214.016 12.5056 213.977 12.3521 213.983 12.197V8.49698H213.165V7.56699H213.975Z" fill="#69BD42"/>
<path d="M217.899 8.39498C217.903 8.27668 217.935 8.16094 217.991 8.05685C218.048 7.95276 218.127 7.86312 218.224 7.79498C218.501 7.61982 218.826 7.53815 219.153 7.56198H221.329C221.48 7.56351 221.631 7.57456 221.78 7.595C221.942 7.61615 222.098 7.66844 222.24 7.74899C222.388 7.83539 222.51 7.96053 222.593 8.11099C222.696 8.31518 222.744 8.54259 222.733 8.77099V10.742H219.2V12.257H222.63V13.094H219.59C219.49 13.094 219.341 13.094 219.158 13.089C218.97 13.085 218.785 13.0474 218.61 12.978C218.419 12.9005 218.253 12.7718 218.131 12.606C217.976 12.3733 217.896 12.0993 217.899 11.82V8.39498ZM219.199 8.40399V9.90997H221.421V8.40399H219.199Z" fill="#69BD42"/>
<path d="M230.207 7.56698C230.411 7.56573 230.614 7.57807 230.816 7.60397C230.973 7.62212 231.124 7.67658 231.257 7.763C231.38 7.85045 231.472 7.97377 231.522 8.11599C231.587 8.31352 231.617 8.52104 231.61 8.72897V13.099H230.31V8.39898H228.38V13.099H227.08V8.42297H225.155V13.099H223.855V7.56698H230.207Z" fill="#69BD42"/>
<path d="M111.29 28.84H102V27.74H104.187V23.501H105.265V27.74H106.817V23.501H107.895V27.74H111.29V28.84ZM110.299 26.026H109.18V20.553H102.88V19.453H110.295L110.299 26.026Z" fill="#00256A"/>
<path d="M120.936 25.499H111.646V24.457H115.72V23.619H112.594V19.044H119.988V20.098H113.715V20.817H119.88V21.847H113.715V22.565H120.171V23.619H116.862V24.457H120.936V25.499ZM117.962 26.05C118.276 26.0469 118.589 26.0829 118.894 26.157C119.156 26.2204 119.404 26.3301 119.627 26.481C119.827 26.6199 119.992 26.8047 120.106 27.02C120.219 27.2552 120.278 27.5129 120.278 27.774C120.278 28.035 120.219 28.2927 120.106 28.528C119.992 28.7433 119.827 28.9281 119.627 29.067C119.405 29.2191 119.156 29.3289 118.894 29.391C118.589 29.4655 118.276 29.5017 117.962 29.499H114.62C114.306 29.5017 113.993 29.4654 113.688 29.391C113.426 29.3291 113.177 29.2193 112.955 29.067C112.754 28.9284 112.59 28.7435 112.476 28.528C112.362 28.2929 112.303 28.0352 112.303 27.774C112.303 27.5128 112.362 27.255 112.476 27.02C112.59 26.8045 112.754 26.6196 112.955 26.481C113.178 26.3299 113.426 26.2201 113.688 26.157C113.993 26.0829 114.306 26.0469 114.62 26.05H117.962ZM117.897 28.457C118.207 28.4677 118.516 28.4188 118.807 28.313C118.912 28.2669 119 28.1914 119.063 28.0957C119.125 28 119.159 27.8882 119.159 27.774C119.159 27.6597 119.125 27.5479 119.063 27.4522C119 27.3565 118.912 27.2811 118.807 27.235C118.515 27.1301 118.207 27.0816 117.897 27.092H114.685C114.375 27.0816 114.066 27.1301 113.774 27.235C113.67 27.2814 113.581 27.357 113.519 27.4526C113.457 27.5483 113.424 27.6599 113.424 27.774C113.424 27.8881 113.457 27.9997 113.519 28.0953C113.581 28.191 113.67 28.2666 113.774 28.313C114.066 28.4188 114.375 28.4676 114.685 28.457H117.897Z" fill="#00256A"/>
<path d="M127.941 28.121H121.249V27.021H123.318V23.429H124.46V27.021H127.941V28.121ZM127.141 25.535H126.02V20.697H121.655V19.597H127.141V25.535ZM129.491 29.547H128.37V19.069H129.491V23.044H130.73V24.169H129.491V29.547Z" fill="#00256A"/>
<path d="M136.973 20.981H130.959V19.881H133.417V18.864H134.537V19.881H136.973V20.981ZM133.223 25.376C132.691 25.4034 132.169 25.2279 131.762 24.885C131.412 24.4928 131.218 23.9853 131.218 23.4595C131.218 22.9336 131.412 22.4262 131.762 22.034C132.169 21.6911 132.691 21.5156 133.223 21.543H134.731C135.263 21.5156 135.785 21.6911 136.192 22.034C136.542 22.4262 136.736 22.9336 136.736 23.4595C136.736 23.9853 136.542 24.4928 136.192 24.885C135.785 25.2279 135.263 25.4034 134.731 25.376H133.223ZM139.118 29.566H137.997V27.151H131.962V26.11H139.118V29.566ZM134.634 24.321C134.763 24.3223 134.891 24.3083 135.017 24.279C135.13 24.2539 135.237 24.2052 135.33 24.136C135.422 24.0652 135.494 23.9723 135.54 23.866C135.64 23.6039 135.64 23.3141 135.54 23.052C135.494 22.9458 135.422 22.853 135.33 22.782C135.237 22.7132 135.13 22.6645 135.017 22.639C134.891 22.6102 134.763 22.5961 134.634 22.597H133.32C133.073 22.5884 132.829 22.655 132.62 22.788C132.519 22.8664 132.44 22.9691 132.391 23.0865C132.341 23.2039 132.322 23.3321 132.335 23.459C132.331 23.5984 132.357 23.7371 132.41 23.866C132.456 23.9723 132.528 24.0652 132.62 24.136C132.713 24.2052 132.82 24.2539 132.933 24.279C133.059 24.3083 133.187 24.3223 133.316 24.321H134.634ZM139.118 25.698H137.997V19.065H139.118V21.83H140.38V22.956H139.119L139.118 25.698Z" fill="#00256A"/>
<path d="M146.112 24.673C145.689 24.361 145.274 24.0276 144.867 23.673C144.46 23.3183 144.064 22.9573 143.677 22.59C143.49 22.757 143.289 22.94 143.077 23.135C142.865 23.33 142.641 23.528 142.415 23.728C142.189 23.928 141.96 24.123 141.73 24.315C141.5 24.507 141.281 24.682 141.073 24.842L140.383 23.942C140.835 23.5907 141.264 23.2453 141.671 22.906C142.075 22.5688 142.462 22.211 142.829 21.834C142.937 21.7383 143.015 21.6142 143.056 21.476C143.086 21.3384 143.101 21.1978 143.099 21.057V20.446H140.89V19.346H146.397V20.446H144.241V21.092C144.239 21.2289 144.253 21.3656 144.284 21.499C144.329 21.636 144.407 21.7598 144.511 21.859C144.877 22.2343 145.234 22.5676 145.583 22.859C145.932 23.1503 146.329 23.4633 146.774 23.798L146.112 24.673ZM143.785 29.522C143.468 29.5257 143.152 29.4753 142.852 29.373C142.581 29.2806 142.332 29.1339 142.119 28.942C141.914 28.7525 141.75 28.5218 141.64 28.265C141.409 27.6968 141.409 27.0611 141.64 26.493C141.751 26.2363 141.914 26.0057 142.119 25.816C142.332 25.6243 142.581 25.478 142.852 25.386C143.152 25.2825 143.468 25.2314 143.785 25.235H146.695C147.012 25.2315 147.327 25.2826 147.627 25.386C147.898 25.4781 148.147 25.6244 148.36 25.816C148.565 26.0057 148.728 26.2363 148.839 26.493C149.07 27.0611 149.07 27.6968 148.839 28.265C148.729 28.5218 148.566 28.7525 148.36 28.942C148.147 29.1339 147.898 29.2806 147.627 29.373C147.327 29.4752 147.012 29.5256 146.695 29.522H143.785ZM146.63 28.422C146.955 28.4366 147.275 28.3438 147.541 28.158C147.651 28.0604 147.739 27.9406 147.799 27.8065C147.86 27.6724 147.891 27.527 147.891 27.38C147.891 27.2329 147.86 27.0876 147.799 26.9535C147.739 26.8194 147.651 26.6996 147.541 26.602C147.275 26.4165 146.954 26.3241 146.63 26.339H143.849C143.525 26.3239 143.204 26.4164 142.938 26.602C142.828 26.6996 142.74 26.8194 142.68 26.9535C142.619 27.0876 142.588 27.2329 142.588 27.38C142.588 27.527 142.619 27.6724 142.68 27.8065C142.74 27.9406 142.828 28.0604 142.938 28.158C143.204 28.344 143.525 28.4368 143.849 28.422H146.63ZM148.764 24.901H147.643V19.07H148.764V21.189H150.025V22.315H148.764V24.901Z" fill="#00256A"/>
<path d="M155.855 27.726H150.812V19.476H151.932V22.314H154.732V19.476H155.852L155.855 27.726ZM154.735 26.626V23.394H151.935V26.626H154.735ZM158.862 29.549H157.742V19.069H158.862V29.549Z" fill="#00256A"/>
<path d="M169.004 25.355H162.257V24.255H164.434V21.881H165.58V24.252H169.008L169.004 25.355ZM168.204 23.547H167.083V20.301H162.664V19.224H168.204V23.547ZM170.78 29.447H163.505V26.19H164.626V28.346H170.78V29.447ZM170.554 26.993H169.433V19.066H170.554V21.999H171.739V23.125H170.554V26.993Z" fill="#00256A"/>
<path d="M178.564 27.799H172.528V22.999H176.645V20.628H172.518V19.528H177.766V24.078H173.649V26.7H178.564V27.799ZM180.579 29.547H179.458V19.069H180.58L180.579 29.547Z" fill="#00256A"/>
<path d="M190.149 24.697H189.029V22.23H187.466C187.413 22.5503 187.304 22.8586 187.142 23.14C186.987 23.407 186.784 23.6425 186.542 23.834C186.294 24.03 186.013 24.1804 185.713 24.278C185.384 24.3842 185.04 24.4366 184.694 24.433C184.307 24.436 183.924 24.3682 183.562 24.233C183.232 24.1122 182.931 23.9242 182.678 23.681C182.425 23.4377 182.225 23.1445 182.091 22.82C181.947 22.4682 181.876 22.091 181.881 21.711C181.876 21.3301 181.947 20.952 182.091 20.599C182.224 20.2746 182.422 19.9808 182.673 19.736C182.928 19.4917 183.231 19.3021 183.562 19.179C184.25 18.9316 185 18.9169 185.697 19.137C185.993 19.2345 186.272 19.3801 186.521 19.568C186.763 19.7528 186.966 19.9827 187.121 20.245C187.281 20.5176 187.393 20.8151 187.455 21.125H189.029V19.066H190.149V24.697ZM190.149 29.45H182.928V25.224H184.049V26.17H189.029V25.224H190.149V29.45ZM185.925 22.937C186.222 22.5997 186.387 22.1657 186.388 21.716C186.389 21.2662 186.226 20.8315 185.93 20.493C185.582 20.2066 185.146 20.0499 184.696 20.0499C184.246 20.0499 183.809 20.2066 183.462 20.493C183.305 20.6538 183.184 20.8453 183.105 21.0555C183.026 21.2656 182.992 21.4899 183.004 21.714C182.991 21.9376 183.025 22.1615 183.104 22.3711C183.183 22.5808 183.305 22.7715 183.462 22.931C183.81 23.2121 184.245 23.3658 184.692 23.3669C185.14 23.368 185.575 23.2164 185.925 22.937V22.937ZM189.025 28.349V27.271H184.045V28.349H189.025Z" fill="#00256A"/>
<path d="M200.528 26.254H196.455V29.547H195.312V26.254H191.238V25.154H200.528V26.254ZM199.537 23.883H192.229V19.248H199.537V23.883ZM198.416 22.783V20.352H193.351V22.781L198.416 22.783Z" fill="#00256A"/>
<path d="M209.301 27.894C208.812 27.2466 208.354 26.6416 207.927 26.079C207.5 25.5163 207.1 24.94 206.727 24.35C206.361 24.94 205.939 25.5466 205.461 26.17C204.983 26.7933 204.503 27.4157 204.022 28.037L203.289 27.199C203.512 26.9123 203.741 26.615 203.974 26.307C204.207 25.999 204.435 25.6877 204.658 25.373C204.88 25.0577 205.092 24.7443 205.294 24.433C205.496 24.1217 205.683 23.8183 205.854 23.523C205.963 23.3255 206.037 23.1112 206.075 22.889C206.121 22.648 206.145 22.4033 206.145 22.158V19.452H207.288V22.122C207.288 22.365 207.31 22.6076 207.352 22.847C207.387 23.0673 207.46 23.2798 207.568 23.475C207.913 24.0583 208.301 24.6583 208.732 25.275C209.163 25.8917 209.596 26.4863 210.032 27.059L209.301 27.894ZM211.941 29.547H210.821V19.069H211.941V29.547Z" fill="#00256A"/>
<path d="M222.245 28.84H212.954V27.74H222.245V28.84ZM221.189 25.883C220.578 25.435 219.968 24.9577 219.357 24.451C218.746 23.9443 218.157 23.411 217.589 22.851C217.021 23.409 216.435 23.9423 215.832 24.451C215.229 24.9597 214.622 25.437 214.011 25.883L213.299 24.912C213.558 24.7287 213.824 24.5286 214.099 24.312C214.374 24.0953 214.649 23.8693 214.924 23.634C215.197 23.4033 215.461 23.1723 215.716 22.941C215.971 22.7096 216.204 22.49 216.416 22.282C216.596 22.1106 216.745 21.9101 216.858 21.689C216.958 21.4651 217.005 21.2218 216.998 20.977V19.277H218.18V20.977C218.173 21.2218 218.221 21.465 218.32 21.689C218.432 21.9105 218.582 22.1111 218.762 22.282C218.97 22.4893 219.203 22.709 219.462 22.941C219.721 23.173 219.987 23.404 220.262 23.634C220.538 23.866 220.816 24.092 221.097 24.312C221.378 24.532 221.647 24.732 221.905 24.912L221.189 25.883Z" fill="#00256A"/>
<path d="M227.493 24.581H223.021V19.276H227.106V20.354H224.131V21.396H226.556V22.449H224.131V23.503H227.493V24.581ZM231.61 29.454H224.239V25.631H231.61V29.454ZM230.49 28.377V26.712H225.36V28.377H230.49ZM229.49 25.108H228.38V22.438H226.99V21.338H228.38V19.194H229.49V25.108ZM231.613 25.108H230.493V19.073H231.613V25.108Z" fill="#00256A"/>
<path d="M9.57001 1.668L20.27 26.405L21.204 26.398L31.504 1.491L41.069 1.41299L41.369 38.04L35.536 38.087L35.299 8.78699L34.366 8.79498L23.79 33.895L17.725 33.944L6.83801 9.01999L5.90503 9.02798L6.14099 38.328L0.309021 38.375L0.0090332 1.74799L9.57001 1.668Z" fill="#2D92E9"/>
<path d="M59.9949 5.97299L60.249 37.422L54.1829 37.47L53.929 6.021L45.2969 6.09L45.2629 1.88998L68.5919 1.70297L68.626 5.90298L59.9949 5.97299Z" fill="#2D92E9"/>
<path d="M71.7759 37.794L71.7419 33.594L88.2129 33.461L88.113 20.77L76.7279 20.862C75.3224 20.9453 73.9367 20.4982 72.845 19.609C72.3383 19.1299 71.9402 18.5479 71.6773 17.9021C71.4144 17.2563 71.2929 16.5617 71.3209 15.865C71.3169 15.275 71.3036 14.5597 71.2809 13.719C71.2583 12.8783 71.2436 12.031 71.2369 11.177C71.2309 10.321 71.2309 9.50398 71.2369 8.72598C71.2429 7.94798 71.2453 7.31066 71.2439 6.814C71.2199 5.81041 71.4614 4.81829 71.944 3.93799C72.3695 3.22338 72.966 2.62578 73.6799 2.19897C74.4184 1.76326 75.2328 1.47146 76.0799 1.33899C76.9664 1.19092 77.8632 1.11369 78.7619 1.108L92.3389 0.997986L92.3729 5.198L77.3019 5.319L77.392 16.425L89.384 16.325C90.6071 16.2487 91.8175 16.6106 92.798 17.346C93.2718 17.8236 93.6397 18.3956 93.8779 19.0248C94.116 19.654 94.2189 20.3263 94.1799 20.998L94.267 31.683C94.2909 32.5756 94.0894 33.4599 93.681 34.254C93.2866 34.9994 92.7249 35.6432 92.0399 36.135C91.3076 36.6541 90.4894 37.0397 89.6229 37.274C88.6894 37.5333 87.7257 37.6678 86.7569 37.674L71.7759 37.794Z" fill="#2D92E9"/>
</svg>
